<?xml version="1.0" standalone="no"?>
 <!DOCTYPE svg PUBLIC "-//W3C//DTD SVG 1.1//EN" 
 "http://www.w3.org/Graphics/SVG/1.1/DTD/svg11.dtd"> 
<svg
  xmlns:svg="http://www.w3.org/2000/svg"
  xmlns="http://www.w3.org/2000/svg"
  xmlns:xlink="http://www.w3.org/1999/xlink"
  version="1.1"
  width="297.002200mm" height="210.007200mm" viewBox="0.000000 0.000000 297.002200 210.007200">
<title>SVG Image created as chocofi-Edge_Cuts.svg date 2024/10/22 23:49:13 </title>
  <desc>Image generated by PCBNEW </desc>
<g style="fill:#000000; fill-opacity:1.000000;stroke:#000000; stroke-opacity:1.000000;
stroke-linecap:round; stroke-linejoin:round;"
 transform="translate(0 0) scale(1 1)">
</g>
<g style="fill:none; 
stroke:#000000; stroke-width:0.150000; stroke-opacity:1; 
stroke-linecap:round; stroke-linejoin:round;">
<path d="M187.620000 53.805000
L167.330400 53.815020
" />
<path d="M94.515447 62.020847
L77.419200 61.976000
" />
<path d="M175.768000 133.654800
L188.214000 112.014000
" />
<path d="M160.477200 125.984000
L174.288668 133.959600
" />
<path d="M166.850402 53.455020 A0.500000 0.500000 0.0 0 0 166.360498 53.055000" />
<path d="M166.850386 53.455024 A0.500020 0.500020 0.0 0 0 167.330400 53.815020" />
<path d="M166.360498 53.055000
L149.293200 53.069020
" />
<path d="M94.515447 62.020847 A0.500047 0.500047 0.0 0 0 95.015447 61.520847" />
<path d="M95.517120 50.006820 A0.499980 0.499980 0.0 0 0 95.017120 50.506820" />
<path d="M130.310000 44.036200
L113.530000 44.049553
" />
<path d="M130.810000 50.053400
L130.810000 44.536200
" />
<path d="M148.293200 50.569020
L131.310000 50.553400
" />
<path d="M148.793200 52.569020
L148.793200 51.069020
" />
<path d="M95.017120 50.506820
L95.015447 61.520847
" />
<path d="M112.547120 50.006820
L95.517120 50.006820
" />
<path d="M113.030000 44.549553
L113.047120 49.506820
" />
<path d="M112.547120 50.006820 A0.500020 0.500020 0.0 0 0 113.047120 49.506820" />
<path d="M113.530000 44.049600 A0.500000 0.500000 0.0 0 0 113.030000 44.549553" />
<path d="M130.810000 44.536200 A0.500000 0.500000 0.0 0 0 130.310000 44.036200" />
<path d="M130.810000 50.053400 A0.500000 0.500000 0.0 0 0 131.310000 50.553400" />
<path d="M148.793180 51.069020 A0.499980 0.499980 0.0 0 0 148.293200 50.569020" />
<path d="M148.793180 52.569020 A0.500020 0.500020 0.0 0 0 149.293200 53.069020" />
<path d="M188.120000 54.305000 A0.500000 0.500000 0.0 0 0 187.620000 53.805000" />
<path d="M94.132400 113.500000
L143.154400 121.259600
" />
<path d="M174.288670 133.959593 A1.665860 1.665860 0.0 0 0 175.768000 133.654800" />
<path d="M77.012800 93.776800
L77.012800 110.744000
" />
<path d="M76.962000 62.433200
L77.012800 76.708000
" />
<path d="M188.120000 54.305000
L188.214000 112.014000
" />
<path d="M77.012800 112.115600
L77.012800 110.744000
" />
<path d="M77.012800 76.708000
L77.012800 93.776800
" />
<path d="M77.419200 61.976000 A0.457200 0.457200 0.0 0 0 76.962000 62.433200" />
<path d="M77.673200 112.776000
L94.132400 113.500000
" />
<path d="M143.154400 121.259600
L160.477200 125.984000
" />
<path d="M77.012800 112.115600 A0.660400 0.660400 0.0 0 0 77.673200 112.776000" />
<path style="stroke:1 ;fill-rule:evenodd;"
d="M 167.061327,109.168119
167.115722,109.168119
167.163578,109.177064
167.213347,109.181419
167.274435,109.197787
167.333396,109.208809
167.373383,109.224300
167.415361,109.235548
167.478913,109.265182
167.539886,109.288804
167.571358,109.308290
167.604901,109.323932
167.668172,109.368235
167.728162,109.405379
167.751156,109.426341
167.776220,109.443891
167.836175,109.503846
167.891811,109.554565
167.906977,109.574648
167.924108,109.591779
167.977543,109.668093
168.025261,109.731281
168.033810,109.748450
168.044066,109.763097
168.087741,109.856758
168.123967,109.929510
168.127568,109.942168
168.132452,109.952641
168.163220,110.067473
168.184568,110.142501
168.185225,110.149596
168.186580,110.154652
168.201561,110.325893
168.205000,110.363000
168.201561,110.400109
168.186580,110.571347
168.185225,110.576401
168.184568,110.583499
168.163214,110.658548
168.132451,110.773361
168.127568,110.783830
168.123967,110.796490
168.087741,110.869241
168.044067,110.962901
168.033811,110.977547
168.025261,110.994719
167.977536,111.057916
167.924108,111.134220
167.906980,111.151347
167.891811,111.171435
167.836163,111.222164
167.776220,111.282108
167.751161,111.299654
167.728162,111.320621
167.668160,111.357772
167.604901,111.402067
167.571365,111.417705
167.539886,111.437196
167.478900,111.460821
167.415361,111.490451
167.373391,111.501696
167.333396,111.517191
167.274423,111.528214
167.213347,111.544580
167.163588,111.548933
167.115722,111.557881
167.061316,111.557881
167.005000,111.562808
166.948684,111.557881
166.894278,111.557881
166.846412,111.548933
166.796652,111.544580
166.735573,111.528214
166.676604,111.517191
166.636610,111.501697
166.594638,111.490451
166.531093,111.460819
166.470114,111.437196
166.438637,111.417706
166.405098,111.402067
166.341830,111.357766
166.281838,111.320621
166.258841,111.299657
166.233779,111.282108
166.173824,111.222153
166.118189,111.171435
166.103022,111.151351
166.085891,111.134220
166.032450,111.057898
165.984739,110.994719
165.976191,110.977552
165.965932,110.962901
165.922243,110.869210
165.886033,110.796490
165.882432,110.783836
165.877548,110.773361
165.846768,110.658487
165.825432,110.583499
165.824774,110.576407
165.823419,110.571347
165.808420,110.399916
165.805000,110.363000
165.808420,110.326086
165.823419,110.154652
165.824774,110.149591
165.825432,110.142501
165.846762,110.067533
165.877547,109.952641
165.882432,109.942163
165.886033,109.929510
165.922243,109.856789
165.965933,109.763097
165.976192,109.748445
165.984739,109.731281
166.032442,109.668111
166.085891,109.591779
166.103026,109.574643
166.118189,109.554565
166.173813,109.503856
166.233779,109.443891
166.258846,109.426338
166.281838,109.405379
166.341820,109.368239
166.405097,109.323933
166.438641,109.308291
166.470114,109.288804
166.531086,109.265183
166.594641,109.235547
166.636620,109.224298
166.676604,109.208809
166.735560,109.197788
166.796652,109.181419
166.846422,109.177064
166.894278,109.168119
166.948672,109.168119
167.005000,109.163191
Z" /> 
<path style="stroke:1 ;fill-rule:evenodd;"
d="M 95.056327,82.625119
95.110722,82.625119
95.158578,82.634064
95.208347,82.638419
95.269435,82.654787
95.328396,82.665809
95.368383,82.681300
95.410361,82.692548
95.473913,82.722182
95.534886,82.745804
95.566358,82.765290
95.599901,82.780932
95.663172,82.825235
95.723162,82.862379
95.746156,82.883341
95.771220,82.900891
95.831175,82.960846
95.886811,83.011565
95.901977,83.031648
95.919108,83.048779
95.972543,83.125093
96.020261,83.188281
96.028810,83.205450
96.039066,83.220097
96.082741,83.313758
96.118967,83.386510
96.122568,83.399168
96.127452,83.409641
96.158220,83.524473
96.179568,83.599501
96.180225,83.606596
96.181580,83.611652
96.196561,83.782893
96.200000,83.820000
96.196561,83.857109
96.181580,84.028347
96.180225,84.033401
96.179568,84.040499
96.158214,84.115548
96.127451,84.230361
96.122568,84.240830
96.118967,84.253490
96.082741,84.326241
96.039067,84.419901
96.028811,84.434547
96.020261,84.451719
95.972536,84.514916
95.919108,84.591220
95.901980,84.608347
95.886811,84.628435
95.831163,84.679164
95.771220,84.739108
95.746161,84.756654
95.723162,84.777621
95.663160,84.814772
95.599901,84.859067
95.566365,84.874705
95.534886,84.894196
95.473900,84.917821
95.410361,84.947451
95.368391,84.958696
95.328396,84.974191
95.269423,84.985214
95.208347,85.001580
95.158588,85.005933
95.110722,85.014881
95.056316,85.014881
95.000000,85.019808
94.943684,85.014881
94.889278,85.014881
94.841412,85.005933
94.791652,85.001580
94.730573,84.985214
94.671604,84.974191
94.631610,84.958697
94.589638,84.947451
94.526093,84.917819
94.465114,84.894196
94.433637,84.874706
94.400098,84.859067
94.336830,84.814766
94.276838,84.777621
94.253841,84.756657
94.228779,84.739108
94.168824,84.679153
94.113189,84.628435
94.098022,84.608351
94.080891,84.591220
94.027450,84.514898
93.979739,84.451719
93.971191,84.434552
93.960932,84.419901
93.917243,84.326210
93.881033,84.253490
93.877432,84.240836
93.872548,84.230361
93.841768,84.115487
93.820432,84.040499
93.819774,84.033407
93.818419,84.028347
93.803420,83.856916
93.800000,83.820000
93.803420,83.783086
93.818419,83.611652
93.819774,83.606591
93.820432,83.599501
93.841762,83.524533
93.872547,83.409641
93.877432,83.399163
93.881033,83.386510
93.917243,83.313789
93.960933,83.220097
93.971192,83.205445
93.979739,83.188281
94.027442,83.125111
94.080891,83.048779
94.098026,83.031643
94.113189,83.011565
94.168813,82.960856
94.228779,82.900891
94.253846,82.883338
94.276838,82.862379
94.336820,82.825239
94.400097,82.780933
94.433641,82.765291
94.465114,82.745804
94.526086,82.722183
94.589641,82.692547
94.631620,82.681298
94.671604,82.665809
94.730560,82.654788
94.791652,82.638419
94.841422,82.634064
94.889278,82.625119
94.943672,82.625119
95.000000,82.620191
Z" /> 
<path style="stroke:1 ;fill-rule:evenodd;"
d="M 149.027327,68.655119
149.081722,68.655119
149.129578,68.664064
149.179347,68.668419
149.240435,68.684787
149.299396,68.695809
149.339383,68.711300
149.381361,68.722548
149.444913,68.752182
149.505886,68.775804
149.537358,68.795290
149.570901,68.810932
149.634172,68.855235
149.694162,68.892379
149.717156,68.913341
149.742220,68.930891
149.802175,68.990846
149.857811,69.041565
149.872977,69.061648
149.890108,69.078779
149.943543,69.155093
149.991261,69.218281
149.999810,69.235450
150.010066,69.250097
150.053741,69.343758
150.089967,69.416510
150.093568,69.429168
150.098452,69.439641
150.129220,69.554473
150.150568,69.629501
150.151225,69.636596
150.152580,69.641652
150.167561,69.812893
150.171000,69.850000
150.167561,69.887109
150.152580,70.058347
150.151225,70.063401
150.150568,70.070499
150.129214,70.145548
150.098451,70.260361
150.093568,70.270830
150.089967,70.283490
150.053741,70.356241
150.010067,70.449901
149.999811,70.464547
149.991261,70.481719
149.943536,70.544916
149.890108,70.621220
149.872980,70.638347
149.857811,70.658435
149.802163,70.709164
149.742220,70.769108
149.717161,70.786654
149.694162,70.807621
149.634160,70.844772
149.570901,70.889067
149.537365,70.904705
149.505886,70.924196
149.444900,70.947821
149.381361,70.977451
149.339391,70.988696
149.299396,71.004191
149.240423,71.015214
149.179347,71.031580
149.129588,71.035933
149.081722,71.044881
149.027316,71.044881
148.971000,71.049808
148.914684,71.044881
148.860278,71.044881
148.812412,71.035933
148.762652,71.031580
148.701573,71.015214
148.642604,71.004191
148.602610,70.988697
148.560638,70.977451
148.497093,70.947819
148.436114,70.924196
148.404637,70.904706
148.371098,70.889067
148.307830,70.844766
148.247838,70.807621
148.224841,70.786657
148.199779,70.769108
148.139824,70.709153
148.084189,70.658435
148.069022,70.638351
148.051891,70.621220
147.998450,70.544898
147.950739,70.481719
147.942191,70.464552
147.931932,70.449901
147.888243,70.356210
147.852033,70.283490
147.848432,70.270836
147.843548,70.260361
147.812768,70.145487
147.791432,70.070499
147.790774,70.063407
147.789419,70.058347
147.774420,69.886916
147.771000,69.850000
147.774420,69.813086
147.789419,69.641652
147.790774,69.636591
147.791432,69.629501
147.812762,69.554533
147.843547,69.439641
147.848432,69.429163
147.852033,69.416510
147.888243,69.343789
147.931933,69.250097
147.942192,69.235445
147.950739,69.218281
147.998442,69.155111
148.051891,69.078779
148.069026,69.061643
148.084189,69.041565
148.139813,68.990856
148.199779,68.930891
148.224846,68.913338
148.247838,68.892379
148.307820,68.855239
148.371097,68.810933
148.404641,68.795291
148.436114,68.775804
148.497086,68.752183
148.560641,68.722547
148.602620,68.711298
148.642604,68.695809
148.701560,68.684788
148.762652,68.668419
148.812422,68.664064
148.860278,68.655119
148.914672,68.655119
148.971000,68.650191
Z" /> 
<path style="stroke:1 ;fill-rule:evenodd;"
d="M 95.056327,65.607119
95.110722,65.607119
95.158578,65.616064
95.208347,65.620419
95.269435,65.636787
95.328396,65.647809
95.368383,65.663300
95.410361,65.674548
95.473913,65.704182
95.534886,65.727804
95.566358,65.747290
95.599901,65.762932
95.663172,65.807235
95.723162,65.844379
95.746156,65.865341
95.771220,65.882891
95.831175,65.942846
95.886811,65.993565
95.901977,66.013648
95.919108,66.030779
95.972543,66.107093
96.020261,66.170281
96.028810,66.187450
96.039066,66.202097
96.082741,66.295758
96.118967,66.368510
96.122568,66.381168
96.127452,66.391641
96.158220,66.506473
96.179568,66.581501
96.180225,66.588596
96.181580,66.593652
96.196561,66.764893
96.200000,66.802000
96.196561,66.839109
96.181580,67.010347
96.180225,67.015401
96.179568,67.022499
96.158214,67.097548
96.127451,67.212361
96.122568,67.222830
96.118967,67.235490
96.082741,67.308241
96.039067,67.401901
96.028811,67.416547
96.020261,67.433719
95.972536,67.496916
95.919108,67.573220
95.901980,67.590347
95.886811,67.610435
95.831163,67.661164
95.771220,67.721108
95.746161,67.738654
95.723162,67.759621
95.663160,67.796772
95.599901,67.841067
95.566365,67.856705
95.534886,67.876196
95.473900,67.899821
95.410361,67.929451
95.368391,67.940696
95.328396,67.956191
95.269423,67.967214
95.208347,67.983580
95.158588,67.987933
95.110722,67.996881
95.056316,67.996881
95.000000,68.001808
94.943684,67.996881
94.889278,67.996881
94.841412,67.987933
94.791652,67.983580
94.730573,67.967214
94.671604,67.956191
94.631610,67.940697
94.589638,67.929451
94.526093,67.899819
94.465114,67.876196
94.433637,67.856706
94.400098,67.841067
94.336830,67.796766
94.276838,67.759621
94.253841,67.738657
94.228779,67.721108
94.168824,67.661153
94.113189,67.610435
94.098022,67.590351
94.080891,67.573220
94.027450,67.496898
93.979739,67.433719
93.971191,67.416552
93.960932,67.401901
93.917243,67.308210
93.881033,67.235490
93.877432,67.222836
93.872548,67.212361
93.841768,67.097487
93.820432,67.022499
93.819774,67.015407
93.818419,67.010347
93.803420,66.838916
93.800000,66.802000
93.803420,66.765086
93.818419,66.593652
93.819774,66.588591
93.820432,66.581501
93.841762,66.506533
93.872547,66.391641
93.877432,66.381163
93.881033,66.368510
93.917243,66.295789
93.960933,66.202097
93.971192,66.187445
93.979739,66.170281
94.027442,66.107111
94.080891,66.030779
94.098026,66.013643
94.113189,65.993565
94.168813,65.942856
94.228779,65.882891
94.253846,65.865338
94.276838,65.844379
94.336820,65.807239
94.400097,65.762933
94.433641,65.747291
94.465114,65.727804
94.526086,65.704183
94.589641,65.674547
94.631620,65.663298
94.671604,65.647809
94.730560,65.636788
94.791652,65.620419
94.841422,65.616064
94.889278,65.607119
94.943672,65.607119
95.000000,65.602191
Z" /> 
</g> 
</svg>
